<?xml version="1.0" encoding="iso-8859-1"?>
<!-- Generator: Adobe Illustrator 18.1.1, SVG Export Plug-In . SVG Version: 6.00 Build 0)  -->
<svg version="1.1" id="Capa_1" xmlns="http://www.w3.org/2000/svg" xmlns:xlink="http://www.w3.org/1999/xlink" x="0px" y="0px"
	 viewBox="0 0 612 612" style="enable-background:new 0 0 612 612;" xml:space="preserve">
<g>
	<g>
		<path d="M432.922,307.57c-10.96,0-21.539,1.667-31.497,4.758l-87.947-141.641c24.772-3.832,55.102-15.281,77.923-38.536
			c25.061-25.536,33.888-56.058,36.918-71.98c4.531-23.806,2.24-44.326-5.838-52.278C417.306,2.803,407.242,0,394.145,0
			c-25.284,0-65.392,10.781-95.217,41.167c-16.508,16.822-25.645,36.821-30.697,53.201c-2.957-4.49-6.331-8.765-10.169-12.678
			c-21.829-22.238-51.2-30.129-69.719-30.129c-6.966,0-16.352,1.063-21.505,6.133c-11.627,11.444-8.698,60.063,22.379,91.729
			c19.221,19.586,45.715,27.739,64.918,29.116l-69.228,220.743c-1.931-0.105-3.874-0.162-5.83-0.162
			c-58.692,0-106.44,47.749-106.44,106.44c0,58.692,47.749,106.44,106.44,106.44s106.44-47.749,106.44-106.44
			c0-49.037-33.335-90.427-78.531-102.721l71.461-227.864c0.731-0.464,6.965-1.504,9.783-2.998l92.648,149.213
			c-32.436,18.258-54.396,53.019-54.396,92.819c0,58.692,47.749,106.44,106.44,106.44s106.44-47.749,106.44-106.44
			S491.614,307.57,432.922,307.57z M154.039,447.678c-24.374,13.025-39.515,38.266-39.515,65.871c0,6.11-4.954,11.065-11.066,11.065
			c-6.111,0-11.066-4.955-11.066-11.065c0-35.789,19.625-68.508,51.216-85.389c5.392-2.881,12.095-0.848,14.975,4.543
			C161.464,438.094,159.429,444.799,154.039,447.678z M412.813,339.298c2.88,5.39,0.845,12.095-4.545,14.974
			c-24.374,13.025-39.515,38.266-39.515,65.871c0,6.11-4.954,11.066-11.066,11.066s-11.066-4.955-11.066-11.066
			c0-35.789,19.625-68.508,51.216-85.389C403.23,331.874,409.932,333.908,412.813,339.298z"/>
	</g>
</g>
<g>
</g>
<g>
</g>
<g>
</g>
<g>
</g>
<g>
</g>
<g>
</g>
<g>
</g>
<g>
</g>
<g>
</g>
<g>
</g>
<g>
</g>
<g>
</g>
<g>
</g>
<g>
</g>
<g>
</g>
</svg>
